<?xml version="1.0" encoding="UTF-8"?>
<svg version="1.1" xmlns="http://www.w3.org/2000/svg" width="774" height="774">
<path d="M0 0 C255.42 0 510.84 0 774 0 C774 255.42 774 510.84 774 774 C518.58 774 263.16 774 0 774 C0 518.58 0 263.16 0 0 Z " fill="none" transform="translate(0,0)"/>
<path d="M0 0 C165.33 0 330.66 0 501 0 C501 276.87619962 501 276.87619962 483 337 C482.49411206 338.7302702 481.98879612 340.46070787 481.484375 342.19140625 C479.56181894 348.68305871 477.35739387 354.90120844 474.421875 361.0078125 C473.34121069 363.28195772 472.31865006 365.55409907 471.328125 367.8671875 C458.13296623 398.58349949 440.93855433 426.4420502 419.57763672 452.09765625 C418.15363226 453.81474736 416.74871406 455.54544495 415.34765625 457.28125 C408.68647256 465.41113863 401.34330513 472.86768335 393.9375 480.3125 C393.17703873 481.08086182 393.17703873 481.08086182 392.4012146 481.86474609 C386.3579466 487.95650682 380.20087797 493.67295637 373.46264648 499.00878906 C370.9234299 501.06191194 368.52124907 503.22004482 366.125 505.4375 C360.36432671 510.66628014 354.2282563 515.35128406 348 520 C347.25975586 520.55413574 346.51951172 521.10827148 345.75683594 521.67919922 C343.32077654 523.49952395 340.88010235 525.31346586 338.4375 527.125 C337.68283447 527.68662842 336.92816895 528.24825684 336.15063477 528.8269043 C329.90573826 533.43182156 323.48055119 537.73509603 317 542 C316.00863037 542.65516602 315.01726074 543.31033203 313.99584961 543.98535156 C300.27184381 553.04197152 286.46302604 561.93839284 272.4765625 570.5859375 C268.97901045 572.75132114 265.51746896 574.95807158 262.0859375 577.2265625 C261.34553223 577.7100415 260.60512695 578.19352051 259.84228516 578.69165039 C258.49217739 579.57623092 257.14997562 580.47305496 255.81787109 581.38452148 C254.046875 582.53515625 254.046875 582.53515625 251 584 C249.05908203 583.23706055 249.05908203 583.23706055 247 582 C246.03924561 581.45230957 246.03924561 581.45230957 245.05908203 580.89355469 C208.73257363 559.25848589 172.3146224 536.47825501 139.73535156 509.43115234 C138.19839635 508.16361837 136.64341834 506.91800793 135.0859375 505.67578125 C128.87666063 500.72118127 123.05917874 495.42431279 117.30053711 489.95922852 C114.51381298 487.31828875 111.72470624 484.73356343 108.75 482.3046875 C106.49255392 480.41279376 104.67017367 478.6360827 102.8125 476.375 C99.91028235 472.96024944 96.82940744 469.82040044 93.625 466.6875 C88.30863 461.44884678 83.61764492 455.8569103 79 450 C78.19433594 449.02289062 77.38867188 448.04578125 76.55859375 447.0390625 C52.14985357 417.20667158 33.83872979 382.75438917 20.92089844 346.56445312 C20.13754399 344.38302282 19.33238471 342.21294957 18.5078125 340.046875 C-19.71593086 237.95861633 0 84.91623784 0 0 Z " fill="#F1F1F1" transform="translate(138,164)"/>
<path d="M0 0 C165.33 0 330.66 0 501 0 C501 276.87619962 501 276.87619962 483 337 C482.49411206 338.7302702 481.98879612 340.46070787 481.484375 342.19140625 C479.56181894 348.68305871 477.35739387 354.90120844 474.421875 361.0078125 C473.34121069 363.28195772 472.31865006 365.55409907 471.328125 367.8671875 C458.13296623 398.58349949 440.93855433 426.4420502 419.57763672 452.09765625 C418.15363226 453.81474736 416.74871406 455.54544495 415.34765625 457.28125 C408.68647256 465.41113863 401.34330513 472.86768335 393.9375 480.3125 C393.17703873 481.08086182 393.17703873 481.08086182 392.4012146 481.86474609 C386.3579466 487.95650682 380.20087797 493.67295637 373.46264648 499.00878906 C370.9234299 501.06191194 368.52124907 503.22004482 366.125 505.4375 C360.36432671 510.66628014 354.2282563 515.35128406 348 520 C347.25975586 520.55413574 346.51951172 521.10827148 345.75683594 521.67919922 C343.32077654 523.49952395 340.88010235 525.31346586 338.4375 527.125 C337.68283447 527.68662842 336.92816895 528.24825684 336.15063477 528.8269043 C329.90573826 533.43182156 323.48055119 537.73509603 317 542 C316.00863037 542.65516602 315.01726074 543.31033203 313.99584961 543.98535156 C300.27184381 553.04197152 286.46302604 561.93839284 272.4765625 570.5859375 C268.97901045 572.75132114 265.51746896 574.95807158 262.0859375 577.2265625 C261.34553223 577.7100415 260.60512695 578.19352051 259.84228516 578.69165039 C258.49217739 579.57623092 257.14997562 580.47305496 255.81787109 581.38452148 C254.046875 582.53515625 254.046875 582.53515625 251 584 C249.05908203 583.23706055 249.05908203 583.23706055 247 582 C246.03924561 581.45230957 246.03924561 581.45230957 245.05908203 580.89355469 C208.73257363 559.25848589 172.3146224 536.47825501 139.73535156 509.43115234 C138.19839635 508.16361837 136.64341834 506.91800793 135.0859375 505.67578125 C128.87666063 500.72118127 123.05917874 495.42431279 117.30053711 489.95922852 C114.51381298 487.31828875 111.72470624 484.73356343 108.75 482.3046875 C106.49255392 480.41279376 104.67017367 478.6360827 102.8125 476.375 C99.91028235 472.96024944 96.82940744 469.82040044 93.625 466.6875 C88.30863 461.44884678 83.61764492 455.8569103 79 450 C78.19433594 449.02289062 77.38867188 448.04578125 76.55859375 447.0390625 C52.14985357 417.20667158 33.83872979 382.75438917 20.92089844 346.56445312 C20.13754399 344.38302282 19.33238471 342.21294957 18.5078125 340.046875 C-19.71593086 237.95861633 0 84.91623784 0 0 Z M22 22 C16.50664129 151.16474452 16.50664129 151.16474452 27.6875 290.0625 C27.81183411 290.71402039 27.93616821 291.36554077 28.06427002 292.0368042 C30.74560821 305.9813521 34.5345218 319.52405496 39 333 C39.31163086 333.94987793 39.62326172 334.89975586 39.94433594 335.87841797 C57.25748199 387.91862048 89.83032641 438.55273901 131.8125 474.375 C134.80230473 476.94748973 137.72209893 479.57990115 140.625 482.25 C146.19846592 487.26611933 152.03802354 491.89286315 157.98486328 496.45166016 C159.34384344 497.495839 160.69891738 498.54511893 162.05029297 499.59912109 C183.75784821 516.5170029 207.04368887 531.44692403 230.3515625 546.05078125 C233.37056819 547.94679611 236.33837247 549.89452143 239.2734375 551.91796875 C239.92159424 552.35842529 240.56975098 552.79888184 241.23754883 553.25268555 C242.90844366 554.39470584 244.56626407 555.5557948 246.22265625 556.71875 C248.86021038 558.26652716 248.86021038 558.26652716 251.33203125 557.53125 C252.21246094 557.0259375 253.09289062 556.520625 254 556 C254.60368408 555.66548828 255.20736816 555.33097656 255.8293457 554.98632812 C258.11963895 553.69674739 260.37301572 552.35537132 262.625 551 C263.48311279 550.48453613 264.34122559 549.96907227 265.2253418 549.43798828 C276.38949658 542.64893525 287.19369122 535.3078391 298.0234375 528.00292969 C301.17450233 525.88257734 304.33915269 523.7839441 307.5090332 521.69189453 C323.67950717 511.0049778 339.11208343 499.41060963 354 487 C354.50770935 486.57771622 355.0154187 486.15543243 355.53851318 485.72035217 C364.10867453 478.56661727 372.23342664 471.08574208 380.09741211 463.16333008 C381.82248477 461.42745269 383.55811991 459.7026491 385.29492188 457.97851562 C391.98796923 451.29378343 398.14199133 444.43698674 404 437 C405.02383141 435.75621504 406.05076282 434.51496939 407.08203125 433.27734375 C418.431246 419.46761113 428.13018364 404.50421926 437 389 C437.65355469 387.85917969 438.30710937 386.71835937 438.98046875 385.54296875 C499.81046588 276.68609608 479 137.69315915 479 22 C328.19 22 177.38 22 22 22 Z " fill="#040404" transform="translate(138,164)"/>
<path d="M0 0 C150.15 0 300.3 0 455 0 C451.31007151 2.76744637 447.64595348 4.81338586 443.54296875 6.84375 C442.81200485 7.20918411 442.08104095 7.57461823 441.32792664 7.9511261 C438.94985865 9.13829932 436.56881108 10.31934722 434.1875 11.5 C432.53850546 12.3210696 430.88958005 13.14227807 429.24072266 13.96362305 C419.59556793 18.7603397 409.91709027 23.47935879 400.18041992 28.08789062 C391.95275623 31.99137942 383.81992039 36.07584269 375.68457031 40.16748047 C367.78191839 44.13289734 359.82653644 47.97157631 351.83740234 51.7590332 C344.04786072 55.46613652 336.33223269 59.31338432 328.625 63.1875 C320.7391911 67.14841528 312.85061546 71.09730728 304.875 74.875 C304.18873535 75.20266357 303.5024707 75.53032715 302.79541016 75.86791992 C298.24546434 78 298.24546434 78 296 78 C295.88902656 70.91003015 296.02663576 63.88424995 296.5 56.8125 C296.68027926 53.87566016 296.84555041 50.93830928 297 48 C297.0422168 47.20207031 297.08443359 46.40414062 297.12792969 45.58203125 C297.24061377 43.15884196 297.31319827 40.73747011 297.375 38.3125 C297.43204102 37.19935425 297.43204102 37.19935425 297.49023438 36.0637207 C297.55020989 32.20191514 297.11382914 29.62445667 294.7578125 26.61328125 C288.28038629 20.47532355 279.12539889 19.46251791 270.625 17.75 C269.77615234 17.57452637 268.92730469 17.39905273 268.05273438 17.21826172 C256.39311879 15.02821641 246.47034336 15.46245799 235.375 19.6875 C234.29831055 20.0796167 233.22162109 20.4717334 232.11230469 20.87573242 C229.08277434 21.98385351 226.06111572 23.11134078 223.04016113 24.24255371 C220.07686893 25.34272891 217.10373576 26.41514775 214.13064575 27.48851013 C210.95197741 28.63709928 207.77653819 29.79442207 204.60186768 30.95401001 C203.04418501 31.52260279 201.48588244 32.0895004 199.92694092 32.65463257 C197.7242304 33.45559402 195.52577602 34.26730578 193.328125 35.08203125 C192.34995316 35.43480637 192.34995316 35.43480637 191.35202026 35.79470825 C184.38465023 38.40444557 179.68214501 41.45396443 176 48 C174.69931599 51.84066771 174.69521732 55.85513512 174.5 59.87109375 C174.45939453 60.63043716 174.41878906 61.38978058 174.37695312 62.1721344 C174.24760071 64.59374523 174.12322648 67.0155702 174 69.4375 C173.8375207 72.62393478 173.67015696 75.81006084 173.5 78.99609375 C173.46455078 79.72332138 173.42910156 80.45054901 173.39257812 81.19981384 C173.19563274 84.88500853 172.8428595 88.40423844 172 92 C170.97519531 91.43410156 169.95039063 90.86820312 168.89453125 90.28515625 C167.53404275 89.54392459 166.17335511 88.80305836 164.8125 88.0625 C164.13896484 87.68931641 163.46542969 87.31613281 162.77148438 86.93164062 C157.57433772 84.11757585 153.1951848 82.86657225 147.25 82.75 C146.47140625 82.72421875 145.6928125 82.6984375 144.890625 82.671875 C137.20327284 83.54449335 129.89471017 87.16218228 122.875 90.25 C121.59302734 90.78560547 121.59302734 90.78560547 120.28515625 91.33203125 C115.04941845 93.64025974 111.38240767 96.1710702 107.50146484 100.37646484 C105.63119033 102.3987942 103.57480065 104.0356497 101.375 105.6875 C100.23417969 106.56148437 100.23417969 106.56148437 99.0703125 107.453125 C97.48207847 108.63980552 95.87073968 109.79561522 94.25 110.9375 C89.82844222 114.99059463 86.38731946 120.46432664 85.7265625 126.49609375 C85.34763942 137.470289 89.44577206 145.80812547 94.984375 155.0625 C96.4363467 157.83241525 97.3076661 159.82657579 96.49609375 162.921875 C95.18728596 165.18210396 94.16055225 166.49938297 92 168 C89.1796875 168.23828125 89.1796875 168.23828125 85.8125 168.0625 C76.33278978 167.66345676 68.70179278 170.52733625 60 174 C59.38658752 174.24461975 58.77317505 174.4892395 58.14117432 174.74127197 C53.07754246 176.76724755 48.03596741 178.8438512 43 180.9375 C42.28403656 181.23182922 41.56807312 181.52615845 40.83041382 181.82940674 C26.47171104 187.0245704 26.47171104 187.0245704 16 197 C15.84876169 198.5195764 15.75118307 200.04472502 15.68359375 201.5703125 C15.64169922 202.46621094 15.59980469 203.36210937 15.55664062 204.28515625 C15.51732422 205.22230469 15.47800781 206.15945313 15.4375 207.125 C15.39431641 208.06988281 15.35113281 209.01476562 15.30664062 209.98828125 C15.20040928 212.32537092 15.09836824 214.6625683 15 217 C12.87717331 218.00460531 10.75166979 219.00355602 8.625 220 C7.44164062 220.556875 6.25828125 221.11375 5.0390625 221.6875 C2 223 2 223 0 223 C0 149.41 0 75.82 0 0 Z " fill="#FDFDFD" transform="translate(160,186)"/>
<path d="M0 0 C1.36995117 0.26103516 1.36995117 0.26103516 2.76757812 0.52734375 C9.39355469 1.84570312 9.39355469 1.84570312 12.8125 4.125 C7.49283204 6.89958799 2.27827206 9.15971928 -3.4140625 11.03515625 C-4.54103043 11.41552284 -4.54103043 11.41552284 -5.69076538 11.80357361 C-8.06286643 12.60373268 -10.4373781 13.39635705 -12.8125 14.1875 C-15.1945751 14.98273249 -17.57598107 15.77975582 -19.95565796 16.58213806 C-21.42787291 17.0784193 -22.90145579 17.57066809 -24.37661743 18.05812073 C-28.50952913 19.449818 -32.28645809 21.15562993 -36.1875 23.125 C-36.8475 23.125 -37.5075 23.125 -38.1875 23.125 C-41.53901781 38.39536397 -41.35282967 55.10121225 -41.625 70.6875 C-41.65924072 71.68499268 -41.69348145 72.68248535 -41.72875977 73.71020508 C-41.73447998 74.63212646 -41.7402002 75.55404785 -41.74609375 76.50390625 C-41.75954834 77.3038501 -41.77300293 78.10379395 -41.78686523 78.92797852 C-40.59614259 83.29266815 -36.50650689 84.9416089 -32.79345703 87.07617188 C-31.51355201 87.75403011 -30.23067926 88.42630642 -28.9453125 89.09375 C-27.91541702 89.63702942 -27.91541702 89.63702942 -26.86471558 90.19128418 C-24.68323895 91.34087378 -22.4980689 92.48321285 -20.3125 93.625 C-18.13484791 94.76820693 -15.95800384 95.91292971 -13.78170776 97.05871582 C-12.43250188 97.76845649 -11.08240132 98.47650011 -9.73123169 99.18249512 C-6.57246971 100.8385243 -3.4568246 102.53823254 -0.37670898 104.33691406 C3.54190252 106.57622498 3.54190252 106.57622498 7.8125 106.125 C10.14227152 104.4468504 12.15136239 102.8058058 14.25 100.875 C15.49056734 99.77177764 16.7314624 98.6689237 17.97265625 97.56640625 C18.60574707 96.99680176 19.23883789 96.42719727 19.89111328 95.84033203 C22.94604589 93.11301862 26.06794572 90.46534931 29.1875 87.8125 C33.59300134 84.06509693 37.91281921 80.2632585 42.06640625 76.234375 C44.52607258 74.67163398 45.95318666 74.63079769 48.8125 75.125 C58.06176559 83.14225606 72.83161761 102.01294098 75.4375 114 C74.47672332 118.80388341 71.4205811 120.99799638 67.8125 124.125 C66.87470703 124.95837891 66.87470703 124.95837891 65.91796875 125.80859375 C64.609106 126.96284542 63.29368388 128.10969099 61.97265625 129.25 C59.60295127 131.30688679 57.26822744 133.39906259 54.9375 135.5 C54.10476563 136.24894531 53.27203125 136.99789062 52.4140625 137.76953125 C50.60904093 139.40380754 48.81274026 141.04774744 47.0234375 142.69921875 C46.12882812 143.52035156 45.23421875 144.34148437 44.3125 145.1875 C43.4978125 145.94160156 42.683125 146.69570313 41.84375 147.47265625 C39.8125 149.125 39.8125 149.125 37.8125 149.125 C39.28214136 154.79145225 41.36166481 160.00979431 43.6875 165.375 C44.41031742 167.07880706 45.1316847 168.78323009 45.8515625 170.48828125 C46.92543097 173.02923016 48.00209673 175.56874939 49.0859375 178.10546875 C52.64708004 187.06530338 54.08535761 196.67708684 55.8125 206.125 C59.41623784 206.58674482 63.02050397 207.04421232 66.625 207.5 C67.70765137 207.63720459 68.79030273 207.77440918 69.90576172 207.91577148 C77.5076671 208.86754478 85.11313698 209.72000594 92.74536133 210.39013672 C97.64446068 210.85892367 102.3790896 211.36761714 106.45849609 214.3137207 C108.43144017 216.95296919 108.1682845 218.96769299 108.140625 222.234375 C108.13627441 223.45785645 108.13192383 224.68133789 108.12744141 225.94189453 C108.09529541 227.88878174 108.09529541 227.88878174 108.0625 229.875 C108.05009277 231.18710449 108.03768555 232.49920898 108.02490234 233.85107422 C107.71907566 258.7651365 107.71907566 258.7651365 104.8125 263.125 C96.04621547 264.94160519 85.96412128 261.80515191 77.26220703 260.26123047 C65.54710275 257.63996553 65.54710275 257.63996553 53.8125 258.125 C51.48971424 260.5969147 50.25821357 263.13367872 49.12109375 266.30078125 C48.82066162 267.11804688 48.52022949 267.9353125 48.21069336 268.77734375 C47.89366455 269.65519531 47.57663574 270.53304688 47.25 271.4375 C43.85334096 280.67132616 40.03605401 289.65573214 35.87475586 298.5715332 C35.46104736 299.48636475 35.04733887 300.40119629 34.62109375 301.34375 C34.24782959 302.14748047 33.87456543 302.95121094 33.48999023 303.77929688 C32.66937171 306.62055913 32.96406063 308.31600574 33.8125 311.125 C35.19647703 313.06239068 35.19647703 313.06239068 37.0625 314.875 C42.955006 321.21182423 48.0381126 328.14451192 53.23486328 335.05078125 C54.69474513 336.97018022 56.18099182 338.86396824 57.68359375 340.75 C58.110354 341.29358154 58.53711426 341.83716309 58.97680664 342.3972168 C60.11035207 343.83934991 61.25403659 345.27349725 62.3984375 346.70703125 C63.8125 349.125 63.8125 349.125 63.8515625 351.09765625 C62.32022695 354.08548764 60.11967218 356.35360017 57.8125 358.75 C56.80547623 359.81982952 55.79897319 360.89014941 54.79296875 361.9609375 C54.28942871 362.49299805 53.78588867 363.02505859 53.26708984 363.57324219 C51.17712149 365.80282239 49.15276919 368.08889372 47.125 370.375 C45.69056203 371.96110794 44.25313727 373.54452065 42.8125 375.125 C42.08804687 375.92808594 41.36359375 376.73117187 40.6171875 377.55859375 C39.91851562 378.30238281 39.21984375 379.04617188 38.5 379.8125 C37.57767578 380.80830078 37.57767578 380.80830078 36.63671875 381.82421875 C34.8125 383.125 34.8125 383.125 32.88574219 382.91894531 C30.34147912 381.94462318 29.45947927 380.88116015 27.81640625 378.72265625 C27.26404297 378.0056958 26.71167969 377.28873535 26.14257812 376.55004883 C25.55927734 375.77040771 24.97597656 374.9907666 24.375 374.1875 C23.76462891 373.38787842 23.15425781 372.58825684 22.52539062 371.7644043 C17.6492643 365.33969357 12.90578738 358.8163094 8.25219727 352.22875977 C6.79485141 350.17644352 5.31192783 348.14672853 3.8125 346.125 C3.31878906 345.44099121 2.82507813 344.75698242 2.31640625 344.05224609 C-0.64440278 340.1670383 -0.64440278 340.1670383 -5.09375 338.484375 C-8.90198269 339.27294844 -12.20920466 340.69544134 -15.6875 342.375 C-25.01264435 346.64525219 -34.12381533 349.85953288 -44.41699219 350.67041016 C-45.49760925 350.75666656 -46.57822632 350.84292297 -47.69158936 350.93179321 C-48.51523987 350.99555145 -49.33889038 351.05930969 -50.1875 351.125 C-50.19336624 351.72777267 -50.19923248 352.33054535 -50.20527649 352.95158386 C-50.2692501 359.22983091 -50.35368022 365.50756725 -50.44995117 371.78540039 C-50.48318906 374.12777978 -50.5112245 376.47023904 -50.53393555 378.81274414 C-50.56750168 382.18149833 -50.61982019 385.54952131 -50.67578125 388.91796875 C-50.68217117 389.96397751 -50.6885611 391.00998627 -50.69514465 392.08769226 C-50.87637291 401.06607471 -50.87637291 401.06607471 -54.1875 405.125 C-61.48139044 404.49754701 -68.66148128 403.49093362 -75.875 402.25 C-77.36483398 402.00830078 -77.36483398 402.00830078 -78.88476562 401.76171875 C-91.7575431 399.5549569 -91.7575431 399.5549569 -95.1875 396.125 C-95.29422392 394.67843428 -95.33369198 393.2268187 -95.34521484 391.77636719 C-95.35547699 390.85160583 -95.36573914 389.92684448 -95.37631226 388.97406006 C-95.38361359 387.96683899 -95.39091492 386.95961792 -95.3984375 385.921875 C-95.42651286 383.80598194 -95.45517737 381.69009662 -95.484375 379.57421875 C-95.52561508 376.22542592 -95.562486 372.87677672 -95.58886719 369.52783203 C-95.61648447 366.30470526 -95.66236682 363.08224502 -95.7109375 359.859375 C-95.71419037 358.86025085 -95.71744324 357.86112671 -95.72079468 356.83172607 C-95.78197248 349.94529771 -95.78197248 349.94529771 -99.1875 344.125 C-101.44430613 342.43383185 -101.44430613 342.43383185 -104.08984375 341.109375 C-105.05736572 340.58472656 -106.0248877 340.06007813 -107.02172852 339.51953125 C-108.04580811 338.97683594 -109.0698877 338.43414063 -110.125 337.875 C-120.13631487 332.40370903 -129.16085747 326.70615962 -137.625 319 C-139.98887534 316.84197866 -139.98887534 316.84197866 -142.62475586 317.32080078 C-145.40817367 318.19424827 -146.68129459 319.09781023 -148.75390625 321.1171875 C-149.39859863 321.73513184 -150.04329102 322.35307617 -150.70751953 322.98974609 C-151.38153809 323.65312988 -152.05555664 324.31651367 -152.75 325 C-154.17560176 326.36477085 -155.6013847 327.72935246 -157.02734375 329.09375 C-159.02302192 331.02395857 -161.01542563 332.95741131 -163.00439453 334.89453125 C-164.59747518 336.44011919 -166.20363058 337.97088562 -167.8125 339.5 C-168.71226562 340.37398437 -169.61203125 341.24796875 -170.5390625 342.1484375 C-173.56719796 344.40837341 -175.4202734 345.06861974 -179.1875 345.125 C-180.98828125 344.11328125 -180.98828125 344.11328125 -182.5 342.4375 C-183.08910156 341.78523438 -183.67820312 341.13296875 -184.28515625 340.4609375 C-187.20427024 336.87648131 -189.97429766 333.19580941 -192.703125 329.46484375 C-194.47240754 327.05697433 -196.30061177 324.70840135 -198.171875 322.37890625 C-198.67299805 321.7537915 -199.17412109 321.12867676 -199.69042969 320.48461914 C-200.67032646 319.26741861 -201.65517756 318.05418592 -202.64550781 316.84545898 C-206.84676076 311.60600888 -206.84676076 311.60600888 -207.1875 308.125 C-206.15869141 306.43676758 -206.15869141 306.43676758 -204.5390625 304.76953125 C-203.94996094 304.15150635 -203.36085937 303.53348145 -202.75390625 302.89672852 C-201.79291016 301.9269104 -201.79291016 301.9269104 -200.8125 300.9375 C-200.16925781 300.268396 -199.52601563 299.59929199 -198.86328125 298.90991211 C-195.35937824 295.28005467 -191.78566903 291.72384482 -188.1875 288.1875 C-181.20474353 281.77222458 -181.20474353 281.77222458 -177.97875977 273.33764648 C-178.20496644 269.85618022 -178.97587209 267.80611503 -180.53125 264.703125 C-181.03213135 263.68557129 -181.5330127 262.66801758 -182.04907227 261.61962891 C-182.58975342 260.54890137 -183.13043457 259.47817383 -183.6875 258.375 C-184.79267935 256.13916354 -185.89552932 253.90217421 -186.99609375 251.6640625 C-187.53991699 250.56094727 -188.08374023 249.45783203 -188.64404297 248.32128906 C-191.15327305 243.12501569 -193.45099731 237.83919078 -195.6875 232.52050781 C-197.67419364 227.75970867 -197.67419364 227.75970867 -201.1875 224.125 C-204.75996398 222.93417867 -208.19936946 222.73669569 -211.92578125 222.4765625 C-213.4837639 222.3572914 -215.04170547 222.2374827 -216.59960938 222.1171875 C-219.04807612 221.93184247 -221.49661039 221.75023818 -223.94604492 221.578125 C-226.31529769 221.40979783 -228.68290198 221.22560342 -231.05078125 221.0390625 C-231.77598465 220.99206207 -232.50118805 220.94506165 -233.24836731 220.89663696 C-237.84418137 220.51991606 -241.26741891 219.56768932 -245.1875 217.125 C-250.36670357 209.35619464 -248.34175648 195.46752572 -248.4375 186.375 C-248.45893066 185.20767334 -248.48036133 184.04034668 -248.50244141 182.83764648 C-248.50679199 181.74137939 -248.51114258 180.6451123 -248.515625 179.515625 C-248.5249707 178.52594727 -248.53431641 177.53626953 -248.54394531 176.51660156 C-248.42631836 175.72737305 -248.30869141 174.93814453 -248.1875 174.125 C-245.07505677 172.05003785 -244.41302736 171.87734432 -240.88720703 171.88549805 C-239.59038498 171.8799012 -239.59038498 171.8799012 -238.2673645 171.87419128 C-237.33608734 171.87832535 -236.40481018 171.88245941 -235.4453125 171.88671875 C-233.47264937 171.87129972 -231.49999298 171.85499614 -229.52734375 171.83789062 C-226.41765463 171.82143074 -223.30845961 171.81250919 -220.19873047 171.81958008 C-217.1970222 171.82219937 -214.19681974 171.79408404 -211.1953125 171.76171875 C-210.2680838 171.77192551 -209.3408551 171.78213226 -208.38552856 171.79264832 C-202.65019992 171.72168369 -202.65019992 171.72168369 -198.06201172 168.58520508 C-197.44342285 167.7733374 -196.82483398 166.96146973 -196.1875 166.125 C-194.47241957 167.78514903 -192.76567881 169.45270785 -191.0625 171.125 C-190.3509375 171.81142578 -190.3509375 171.81142578 -189.625 172.51171875 C-188.10325289 174.01290171 -186.64639852 175.56279594 -185.1875 177.125 C-184.63175293 177.66092773 -184.07600586 178.19685547 -183.50341797 178.74902344 C-178.15342886 184.59953127 -178.43274251 190.61881953 -178.53805542 198.26138306 C-178.57957212 201.85115213 -178.50668914 205.43834731 -178.43359375 209.02734375 C-178.42020462 209.73320114 -178.40681549 210.43905853 -178.39302063 211.16630554 C-177.6221344 243.44022243 -160.17291338 270.34078206 -137.859375 292.4296875 C-114.50458388 314.11627926 -89.12604351 329.10567372 -56.55859375 328.50390625 C-35.71704548 327.60447981 -8.32991643 321.61156226 6.8125 306.125 C14.7384641 296.23735978 19.0210233 283.71718338 23.8125 272.125 C24.17327637 271.26253662 24.53405273 270.40007324 24.90576172 269.51147461 C31.46062375 253.56625507 33.28642314 238.11485382 33.25 221 C33.25006042 219.80653458 33.25006042 219.80653458 33.25012207 218.58895874 C33.15343975 185.6919496 21.0769425 155.58190675 -1.9375 131.9375 C-19.8738892 114.28006379 -45.52246554 101.79879483 -70.77734375 99.84765625 C-83.58541191 98.70887696 -89.73943393 93.36475665 -97.91015625 83.88671875 C-99.1875 82.125 -99.1875 82.125 -100.1875 79.125 C-97.5475 78.465 -94.9075 77.805 -92.1875 77.125 C-91.38974299 73.93397198 -91.01518642 71.48032277 -90.87792969 68.25219727 C-90.83408142 67.287621 -90.79023315 66.32304474 -90.74505615 65.32923889 C-90.70028137 64.29375412 -90.65550659 63.25826935 -90.609375 62.19140625 C-90.499898 59.9940805 -90.38918269 57.79681617 -90.27734375 55.59960938 C-90.10379649 52.13923436 -89.93715074 48.67919888 -89.79150391 45.2175293 C-89.64825565 41.87403874 -89.47516368 38.53318781 -89.296875 35.19140625 C-89.26019714 34.15794571 -89.22351929 33.12448517 -89.18572998 32.05970764 C-88.91432461 27.40754556 -88.74050077 24.866509 -85.90209961 21.06054688 C-83.46005487 19.31933537 -81.45138012 18.09976392 -78.64453125 17.08984375 C-77.75233887 16.76105225 -76.86014648 16.43226074 -75.94091797 16.09350586 C-74.97041504 15.75327393 -73.99991211 15.41304199 -73 15.0625 C-71.97277832 14.69326416 -70.94555664 14.32402832 -69.88720703 13.94360352 C-67.59712965 13.12240737 -65.30501086 12.30688907 -63.01123047 11.49609375 C-59.58048558 10.27563613 -56.17217248 8.99997382 -52.76548767 7.71409607 C-49.77689511 6.58972673 -46.78102192 5.4856358 -43.78378296 4.384552 C-42.32208399 3.84360671 -40.86300912 3.29550809 -39.40689087 2.73971558 C-25.87324494 -2.40847216 -14.2857854 -2.981933 0 0 Z " fill="#030303" transform="translate(431.1875,211.875)"/>
<path d="M0 0 C-0.58244069 7.39149819 -1.75837556 14.55356458 -3.25 21.8125 C-3.47469971 22.90780029 -3.69939941 24.00310059 -3.9309082 25.1315918 C-4.6128935 28.42272548 -5.30623344 31.71133334 -6 35 C-6.18546387 35.9075 -6.37092773 36.815 -6.56201172 37.75 C-11.14488652 59.9987761 -19.14171068 81.55883711 -29 102 C-29.33773438 102.70044434 -29.67546875 103.40088867 -30.0234375 104.12255859 C-32.28633108 108.78126949 -34.62233057 113.39898733 -37 118 C-37.46664063 118.91523437 -37.93328125 119.83046875 -38.4140625 120.7734375 C-46.72104215 136.56155672 -56.89922213 151.07749523 -68 165 C-68.79148437 166.00546875 -69.58296875 167.0109375 -70.3984375 168.046875 C-79.11740307 178.93771286 -88.80069129 188.89761533 -98.61685181 198.79208374 C-100.02029388 200.20743571 -101.41975658 201.6267301 -102.8190918 203.04614258 C-108.90211431 209.13682013 -115.2812381 214.62741481 -122 220 C-123.08975208 220.92346798 -124.17438306 221.85307466 -125.25 222.79296875 C-144.3895961 239.45855456 -165.840207 253.08559512 -187 267 C-187.9271582 267.61069336 -188.85431641 268.22138672 -189.80957031 268.85058594 C-193.81577448 271.48427885 -197.84014194 274.08536364 -201.890625 276.65039062 C-204.44112957 278.28224123 -206.96875667 279.94781432 -209.5 281.609375 C-211.41605046 282.84470628 -213.3327109 284.07909202 -215.25 285.3125 C-216.14493164 285.90748291 -217.03986328 286.50246582 -217.96191406 287.11547852 C-218.80463867 287.65100342 -219.64736328 288.18652832 -220.515625 288.73828125 C-221.26102539 289.22337158 -222.00642578 289.70846191 -222.77441406 290.20825195 C-225 291 -225 291 -227.49072266 290.31860352 C-229.95161737 289.02542465 -232.29670245 287.67108919 -234.6328125 286.1640625 C-235.51155029 285.60066162 -236.39028809 285.03726074 -237.2956543 284.45678711 C-238.22933838 283.85229736 -239.16302246 283.24780762 -240.125 282.625 C-242.11300193 281.34722157 -244.10128805 280.06988519 -246.08984375 278.79296875 C-247.08483887 278.15278809 -248.07983398 277.51260742 -249.10498047 276.85302734 C-252.51072814 274.67309609 -255.93769244 272.52879775 -259.36791992 270.38769531 C-269.77915806 263.87861684 -279.93527182 257.03146022 -290 250 C-290.98057373 249.31526611 -290.98057373 249.31526611 -291.98095703 248.61669922 C-300.50162176 242.64577042 -308.83576675 236.44988087 -317 230 C-317.63196289 229.50097168 -318.26392578 229.00194336 -318.91503906 228.48779297 C-327.29964244 221.8378645 -335.38241704 214.97469146 -343.17578125 207.640625 C-345.47247661 205.49323072 -347.79772185 203.41656696 -350.1875 201.375 C-356.88661748 195.57004439 -363.86404556 189.26117696 -369 182 C-368 179 -368 179 -365.25390625 177.38110352 C-364.02847618 176.78653871 -362.79751752 176.20329102 -361.5625 175.62890625 C-360.89903061 175.31046249 -360.23556122 174.99201874 -359.55198669 174.66392517 C-357.37241891 173.62053674 -355.18634328 172.59160476 -353 171.5625 C-351.49180075 170.84342895 -349.98407238 170.1233695 -348.47680664 169.40234375 C-345.43254248 167.94789797 -342.38576206 166.49895704 -339.33642578 165.05517578 C-333.3597488 162.22503523 -327.39875409 159.3624689 -321.4375 156.5 C-319.92796753 155.77719849 -319.92796753 155.77719849 -318.38793945 155.03979492 C-304.96658204 148.63696896 -304.96658204 148.63696896 -291.76953125 141.7890625 C-290 141 -290 141 -287 141 C-286.98541748 141.95253662 -286.97083496 142.90507324 -286.95581055 143.88647461 C-286.8973311 147.4595885 -286.82010727 151.03210447 -286.73754883 154.60473633 C-286.70453079 156.14369926 -286.67642878 157.68277656 -286.65356445 159.22192383 C-287.11255872 172.83206052 -287.11255872 172.83206052 -281.51879883 184.54541016 C-275.51878047 188.95886589 -268.05101697 189.68663314 -260.875 190.8125 C-259.03035156 191.13637695 -259.03035156 191.13637695 -257.1484375 191.46679688 C-246.4104284 193.24330573 -234.98544343 194.98335184 -224.6875 190.6875 C-224.05634277 190.4304126 -223.42518555 190.1733252 -222.77490234 189.90844727 C-220.50278924 188.96887765 -218.25231807 187.98608069 -216 187 C-214.52055908 186.36481445 -214.52055908 186.36481445 -213.01123047 185.71679688 C-192.77474984 178.46282059 -192.77474984 178.46282059 -176 166 C-174.81304447 162.43913342 -174.64904582 159.02668976 -174.4375 155.3125 C-174.39431641 154.61060547 -174.35113281 153.90871094 -174.30664062 153.18554688 C-174.2008264 151.45724794 -174.09993419 149.7286489 -174 148 C-171.16622809 150.76709493 -168.4986051 153.46871012 -166.1875 156.6875 C-159.92258572 166.73551814 -159.92258572 166.73551814 -150.75 172.5625 C-145.14034775 172.51232422 -141.16181491 169.36039357 -136.63671875 166.3359375 C-127.40113022 160.22794937 -117.2108417 155.48318634 -107.34179688 150.5 C-102.01388737 147.75932049 -97.19910712 144.89027913 -92.54760742 141.1015625 C-91 140 -91 140 -89 140 C-89 139.34 -89 138.68 -89 138 C-87.70703125 136.73046875 -87.70703125 136.73046875 -85.8125 135.1875 C-69.93904518 122.64254085 -69.93904518 122.64254085 -60.75024414 106.20043945 C-61.03818926 102.51063244 -61.9398683 100.83983487 -63.99609375 97.79296875 C-64.63659668 96.84083496 -65.27709961 95.88870117 -65.93701172 94.90771484 C-69.21028639 90.29414072 -72.59569971 85.7820665 -76.0625 81.3125 C-77.42863195 79.53795018 -78.79452109 77.76321341 -80.16015625 75.98828125 C-81.12912842 74.73265381 -81.12912842 74.73265381 -82.11767578 73.45166016 C-84.77527116 69.99023697 -87.39318918 66.49976515 -90 63 C-89.2554475 61.33232346 -88.45179633 59.69096901 -87.625 58.0625 C-87.18414063 57.14597656 -86.74328125 56.22945313 -86.2890625 55.28515625 C-83.66408401 52.66465725 -83.19668921 52.71499573 -79.671875 52.52734375 C-72.44791381 52.14225014 -66.22677619 49.25700829 -59.625 46.5 C-58.29517592 45.95437716 -56.96509507 45.40937974 -55.63476562 44.86499023 C-51.74661798 43.26653151 -47.87171448 41.63779191 -44 40 C-42.92975586 39.54898926 -41.85951172 39.09797852 -40.75683594 38.63330078 C-37.99655362 37.4604319 -35.24588023 36.26864904 -32.5 35.0625 C-31.71318848 34.7221875 -30.92637695 34.381875 -30.11572266 34.03125 C-24.57902246 31.53514648 -19.61396527 28.91840296 -16.57421875 23.421875 C-16.13529297 22.09929687 -16.13529297 22.09929687 -15.6875 20.75 C-15.36910156 19.79480469 -15.05070312 18.83960938 -14.72265625 17.85546875 C-14.04820575 15.19047786 -13.76521087 12.79887344 -13.625 10.0625 C-13.34988064 6.39424183 -13.22992217 6.20379465 -10.25 3.5625 C-2.84 0 -2.84 0 0 0 Z " fill="#FDFDFD" transform="translate(614,431)"/>
<path d="M0 0 C24.40006797 8.45219535 42.73147335 24.30225624 54.15625 47.58203125 C60.86202874 61.85078548 65.45899157 77.15356749 65.4140625 92.99609375 C65.41501923 93.75119232 65.41597595 94.50629089 65.41696167 95.28427124 C65.41763793 96.86920252 65.41582257 98.45413665 65.41162109 100.0390625 C65.40624986 102.45709459 65.41159262 104.87494224 65.41796875 107.29296875 C65.41730816 108.83984416 65.4160274 110.38671945 65.4140625 111.93359375 C65.41608673 112.65141022 65.41811096 113.36922668 65.42019653 114.10879517 C65.40298932 117.8085666 65.16296019 121.23426843 64.28125 124.83203125 C57.65625 124.95703125 57.65625 124.95703125 54.28125 123.83203125 C48.52568841 123.50637971 44.45762579 124.13734598 39 126.2109375 C38.34221558 126.46068832 37.68443115 126.71043915 37.00671387 126.96775818 C35.62606683 127.49660006 34.24801655 128.03226791 32.87255859 128.57446289 C30.79409256 129.38949528 28.70516365 130.17132716 26.61328125 130.95117188 C17.60417319 134.39653863 9.79927374 138.14251825 4.78125 146.76953125 C1.49977352 155.19101957 2.39917818 165.49707955 5.28125 173.83203125 C5.40625 176.70703125 5.40625 176.70703125 5.28125 178.83203125 C-16.33930361 180.35222643 -38.34451686 170.02906365 -54.7421875 156.30078125 C-57.83229649 153.57321261 -60.78222838 150.72418235 -63.71875 147.83203125 C-64.5128125 147.06246094 -65.306875 146.29289063 -66.125 145.5 C-82.43538861 128.64401741 -90.07332293 105.52955267 -93.71875 82.83203125 C-93.90179688 81.82140625 -94.08484375 80.81078125 -94.2734375 79.76953125 C-94.68644604 75.76459995 -94.30555127 73.69339092 -92.015625 70.33203125 C-89.70248272 67.67919675 -87.26827104 65.25756343 -84.71875 62.83203125 C-83.19756602 61.26987262 -81.67672056 59.70738427 -80.15625 58.14453125 C-77.505928 55.48387661 -74.75885239 52.97793664 -71.92578125 50.515625 C-67.84547307 46.96771661 -63.89743145 43.29624374 -59.96875 39.58203125 C-53.26920358 33.27492688 -46.51451069 27.03524605 -39.71875 20.83203125 C-38.18652137 19.42625347 -36.65534677 18.01933418 -35.12426758 16.61230469 C-33.62225928 15.23320758 -32.11815474 13.85643824 -30.61328125 12.48046875 C-28.71097443 10.73989652 -26.81241417 8.99521909 -24.91796875 7.24609375 C-24.04785156 6.44945312 -23.17773438 5.6528125 -22.28125 4.83203125 C-21.51941406 4.13078125 -20.75757813 3.42953125 -19.97265625 2.70703125 C-13.04965815 -3.05213528 -8.30821597 -2.60940817 0 0 Z " fill="#020202" transform="translate(388.71875,332.16796875)"/>
<path d="M0 0 C0.07027054 28.84326957 0.12307627 57.6865262 0.15543652 86.52986431 C0.15849576 89.20309646 0.16161973 91.87632853 0.16479492 94.54956055 C0.16558185 95.21394974 0.16636878 95.87833893 0.16717956 96.56286112 C0.17937646 106.61281331 0.20047742 116.66272076 0.22631836 126.71264648 C0.25634312 138.39535126 0.27560389 150.07801736 0.28226548 161.76075965 C0.28615569 167.93914922 0.29521411 174.11742818 0.31719017 180.29578209 C0.33776249 186.12750047 0.34379247 191.95906413 0.33932304 197.79081535 C0.34013907 199.91541641 0.34597974 202.0400234 0.35761642 204.16459274 C0.41269046 214.75144483 0.11831756 225.18214116 -1.20878601 235.69587708 C-1.30841481 236.57736787 -1.40804361 237.45885867 -1.51069146 238.36706132 C-2.10521611 242.48929384 -2.42414023 244.4269944 -5.44788837 247.43575573 C-9.05718897 249.38280376 -11.91905016 250 -16 250 C-16.0093457 248.99622314 -16.01869141 247.99244629 -16.02832031 246.95825195 C-16.06830231 243.2211529 -16.13408256 239.48487002 -16.20751953 235.74829102 C-16.23568186 234.13348911 -16.25692 232.51855057 -16.27099609 230.90356445 C-16.29249258 228.57692763 -16.33917211 226.25192523 -16.390625 223.92578125 C-16.39246796 222.84892815 -16.39246796 222.84892815 -16.39434814 221.75032043 C-16.53465848 216.90936321 -17.49509608 214.35131955 -21 211 C-27.54900932 207.28700235 -36.12315084 206.88471137 -43.4375 205.875 C-44.60087891 205.70613281 -45.76425781 205.53726563 -46.96289062 205.36328125 C-53.00096252 204.50021414 -59.00707735 203.7579915 -65.09399414 203.34814453 C-67 203 -67 203 -69 201 C-69.67529236 198.73947811 -70.26223028 196.45227247 -70.8046875 194.15625 C-70.96993927 193.47252319 -71.13519104 192.78879639 -71.30545044 192.08435059 C-72.01107452 189.16422336 -72.70035199 186.2403089 -73.39013672 183.31640625 C-73.89715314 181.17814061 -74.41077264 179.04165843 -74.9296875 176.90625 C-75.09724548 176.21523193 -75.26480347 175.52421387 -75.43743896 174.81225586 C-76.6503644 169.9802647 -78.24449045 165.49979368 -80.36767578 160.99804688 C-81.15126081 158.52203922 -81.01551406 157.38079599 -80 155 C-78.52880859 153.55541992 -78.52880859 153.55541992 -76.6484375 152.23046875 C-75.96136719 151.73353516 -75.27429688 151.23660156 -74.56640625 150.72460938 C-73.84324219 150.21736328 -73.12007812 149.71011719 -72.375 149.1875 C-65.19415527 144.10272136 -59.07825701 138.58967205 -53.375 131.875 C-51.34571724 129.48841689 -49.44052926 127.51195106 -47.0625 125.4375 C-44.70129255 123.10635344 -44.70129255 123.10635344 -44.6328125 119.69921875 C-45.06286676 115.36665086 -46.10754887 113.73842435 -48.8125 110.375 C-50.04033203 108.83199219 -50.04033203 108.83199219 -51.29296875 107.2578125 C-52.1928253 106.16981311 -53.09523294 105.0839193 -54 104 C-54.45971191 103.4440918 -54.91942383 102.88818359 -55.39306641 102.31542969 C-60.3078253 96.38635184 -65.33940979 90.55727281 -70.4375 84.78515625 C-72.57792181 82.33972433 -74.66062445 79.84653662 -76.73828125 77.34765625 C-79.22243839 74.69429956 -81.75161986 74.65271449 -85.25 74.4375 C-94.86818133 74.46963201 -103.43665783 78.41840803 -112.25488281 81.92773438 C-116.0034373 83.39195096 -119.79125643 84.73833331 -123.58544922 86.07910156 C-125.98929005 86.94976682 -125.98929005 86.94976682 -128.14892578 88.07714844 C-133.09209448 90.54156122 -139.57959627 90.67417957 -145 90 C-147.33138238 89.15039433 -149.49402587 88.12797126 -151.71484375 87.0234375 C-155.33583408 85.40172901 -159.11099438 84.69873387 -163 84 C-162.9453125 81.7578125 -162.9453125 81.7578125 -162 79 C-159.61229447 77.35651437 -157.46112265 76.12475026 -154.875 74.875 C-154.12001221 74.49303467 -153.36502441 74.11106934 -152.5871582 73.7175293 C-150.06917761 72.45434618 -147.53764838 71.22316261 -145 70 C-143.70956787 69.37714111 -143.70956787 69.37714111 -142.39306641 68.74169922 C-138.69591403 66.96350289 -134.99453314 65.19462157 -131.28662109 63.43896484 C-123.46967308 59.73257635 -115.72821563 55.88760666 -108 52 C-98.57735979 47.26106466 -89.11218578 42.6317741 -79.58203125 38.11328125 C-71.22967742 34.14039528 -62.96663495 29.99803343 -54.70410156 25.84228516 C-46.61906193 21.78529763 -38.48186829 17.85142995 -30.30786133 13.97729492 C-22.8503059 10.43415396 -15.46444481 6.75901768 -8.11572266 2.99536133 C-7.33890137 2.6011499 -6.56208008 2.20693848 -5.76171875 1.80078125 C-4.740177 1.27738159 -4.740177 1.27738159 -3.69799805 0.7434082 C-2 0 -2 0 0 0 Z " fill="#627B53" transform="translate(617,186)"/>
<path d="M0 0 C0.03963867 0.78648926 0.07927734 1.57297852 0.12011719 2.38330078 C0.31127623 5.96515651 0.53035478 9.54478285 0.75 13.125 C0.811875 14.3625 0.87375 15.6 0.9375 16.875 C1.39932935 25.75783852 1.39932935 25.75783852 6 33 C13.34962112 37.0214908 21.14033563 37.11628763 29.3125 37.4375 C47.03552399 38.27316991 47.03552399 38.27316991 50.50756836 41.32519531 C52.96342189 44.08115069 54.14186568 47.50866724 55.5625 50.875 C57.8574226 56.22319626 60.21952835 61.50911116 62.81640625 66.71875 C63.28296631 67.66121582 63.74952637 68.60368164 64.23022461 69.57470703 C65.14957185 71.42048208 66.081132 73.26023161 67.02563477 75.09326172 C67.44256592 75.93646973 67.85949707 76.77967773 68.2890625 77.6484375 C68.66756348 78.39270996 69.04606445 79.13698242 69.43603516 79.90380859 C70 82 70 82 69.25415039 84.11474609 C67.43199778 86.85382774 65.17667623 88.96734709 62.8125 91.25 C58.89578694 95.07485529 55.1756783 98.98558793 51.62890625 103.15625 C49.38135002 105.7002465 46.94937682 108.03170881 44.48046875 110.359375 C42.17667861 112.91238782 41.14044656 115.26265557 40.5 118.625 C41.90900846 128.13580709 50.01339843 135.91864922 56 143 C57.58657441 144.93484685 59.16997412 146.87230183 60.75 148.8125 C61.48863281 149.71355469 62.22726563 150.61460937 62.98828125 151.54296875 C64.19849728 153.02107726 65.40533044 154.50197857 66.60546875 155.98828125 C69.63239533 159.85156226 69.63239533 159.85156226 74.14453125 161.23828125 C87.71760083 161.61586298 100.10318869 155.51816766 112.44946289 150.47998047 C114.27778483 149.73611951 116.10955209 149.00074441 117.94140625 148.265625 C119.01076416 147.83024414 120.08012207 147.39486328 121.18188477 146.94628906 C124.53806885 145.81932298 126.91314308 145.46247837 130.15625 147.06640625 C130.9296875 147.56011719 131.703125 148.05382812 132.5 148.5625 C136.48178404 151.05482384 140.49320826 153.46501823 144.5625 155.8125 C149.88253012 158.88253012 149.88253012 158.88253012 151 160 C151.07179964 161.51928038 151.08392007 163.04167482 151.0625 164.5625 C151.05347656 165.38878906 151.04445313 166.21507812 151.03515625 167.06640625 C151.01775391 168.02353516 151.01775391 168.02353516 151 169 C150.38705078 169.29132813 149.77410156 169.58265625 149.14257812 169.8828125 C137.52645702 175.40850661 125.93619852 180.97080445 114.45117188 186.76416016 C108.99189329 189.51663707 103.52836787 192.26063648 98.0625 195 C97.45576447 195.30412811 96.84902893 195.60825623 96.22390747 195.92160034 C86.55167663 200.76555912 76.82758353 205.47931158 67 210 C53.54863985 196.200487 42.35248311 180.29907037 32.21582031 163.95556641 C31.06214251 162.09995212 29.88838325 160.25855602 28.7109375 158.41796875 C0.67166135 113.92085661 -14.0945249 59.19836297 -17 7 C-14.54379149 5.82866942 -12.08525083 4.66278278 -9.625 3.5 C-8.92632812 3.16613281 -8.22765625 2.83226562 -7.5078125 2.48828125 C-2.2265625 0 -2.2265625 0 0 0 Z " fill="#637B54" transform="translate(177,402)"/>
<path d="M0 0 C0.1451001 0.77375977 0.2902002 1.54751953 0.43969727 2.34472656 C5.22057834 27.4876539 10.7988212 51.47850686 27 72 C27.83144531 73.06347656 27.83144531 73.06347656 28.6796875 74.1484375 C33.44305938 79.91462452 39.10801512 84.43250763 45 89 C45.84304688 89.68191406 46.68609375 90.36382812 47.5546875 91.06640625 C65.29050803 104.839969 86.92188902 110.53583208 109 112 C109 112.99 109 113.98 109 115 C101.56182501 118.54512259 94.58388411 118.50039673 86.4375 118.4375 C85.76736877 118.43479095 85.09723755 118.43208191 84.40679932 118.42929077 C74.37605431 118.36759129 65.42677255 117.70770231 56 114 C54.43378906 113.43925781 54.43378906 113.43925781 52.8359375 112.8671875 C41.52544697 108.54343036 32.25891905 101.66309853 23 94 C22.07960938 93.30261719 21.15921875 92.60523438 20.2109375 91.88671875 C19.48132813 91.26410156 18.75171875 90.64148438 18 90 C18 89.34 18 88.68 18 88 C17.17242187 87.68482422 17.17242187 87.68482422 16.328125 87.36328125 C13.16916747 85.51348901 11.0613681 82.96778265 8.75 80.1875 C8.26692383 79.6085498 7.78384766 79.02959961 7.28613281 78.43310547 C-6.96151347 60.9894166 -17.3928775 38.88790672 -17.3125 16.125 C-17.32861328 15.18914062 -17.34472656 14.25328125 -17.36132812 13.2890625 C-17.36197266 12.391875 -17.36261719 11.4946875 -17.36328125 10.5703125 C-17.36626221 9.76352051 -17.36924316 8.95672852 -17.37231445 8.12548828 C-16.90957097 5.48375398 -16.08502293 4.635724 -14 3 C-11.66015625 2.05078125 -11.66015625 2.05078125 -9.0625 1.3125 C-8.20785156 1.06113281 -7.35320312 0.80976563 -6.47265625 0.55078125 C-4 0 -4 0 0 0 Z " fill="#040404" transform="translate(290,404)"/>
<path d="M0 0 C3.53747157 4.1206417 5.09458245 8.65271256 6.5 13.8125 C6.7057666 14.5444458 6.9115332 15.2763916 7.12353516 16.03051758 C7.76589358 18.34948588 8.38619025 20.67332274 9 23 C9.2072168 23.77569336 9.41443359 24.55138672 9.62792969 25.35058594 C10.22789477 27.62549328 10.80610714 29.9046415 11.375 32.1875 C11.55482422 32.88141846 11.73464844 33.57533691 11.91992188 34.2902832 C13.75323806 41.9630856 13.75323806 41.9630856 12 46 C8.91837282 48.21936293 5.49751881 49.55740006 2 51 C0.76357312 51.52461195 -0.4725784 52.0498732 -1.70849609 52.57568359 C-5.14050843 54.02229104 -8.58754621 55.42884401 -12.04174805 56.8215332 C-14.1962313 57.69102371 -16.34724496 58.568714 -18.49804688 59.44726562 C-19.88782244 60.01090611 -21.27778984 60.57407384 -22.66796875 61.13671875 C-23.30043015 61.39507004 -23.93289154 61.65342133 -24.58451843 61.91960144 C-28.67585041 63.56176707 -32.75116332 64.85313125 -37 66 C-39.59062529 59.13086298 -42.16976767 52.25750176 -44.73779297 45.37988281 C-45.56097644 43.1755981 -46.38545921 40.97179805 -47.21142578 38.76855469 C-48.33533747 35.76487602 -49.45019796 32.75799413 -50.5625 29.75 C-50.90861328 28.82880371 -51.25472656 27.90760742 -51.61132812 26.95849609 C-51.92650391 26.10078613 -52.24167969 25.24307617 -52.56640625 24.359375 C-52.84427979 23.61139648 -53.12215332 22.86341797 -53.40844727 22.09277344 C-54 20 -54 20 -54 16 C-49.11175689 14.36224019 -44.22281163 12.72659843 -39.33325195 11.09277344 C-37.67583883 10.53864364 -36.0186068 9.98397184 -34.36157227 9.42871094 C-28.91292307 7.60315808 -23.45961311 5.79250185 -18 4 C-17.33643494 3.78110107 -16.67286987 3.56220215 -15.98919678 3.33666992 C-14.20779237 2.75243693 -12.42236852 2.18050089 -10.63671875 1.609375 C-9.65791748 1.29452148 -8.67911621 0.97966797 -7.6706543 0.65527344 C-4.9485359 -0.01262726 -2.78642132 -0.31443732 0 0 Z " fill="#030303" transform="translate(528,346)"/>
<path d="M0 0 C0.23576883 11.48718109 -0.01835004 22.90704705 -0.75 34.375 C-0.81171387 35.53298096 -0.87342773 36.69096191 -0.93701172 37.8840332 C-1.71910689 48.96263075 -1.71910689 48.96263075 -6 53 C-9.53278452 54.75125115 -13.24274832 55.82731822 -17 57 C-19.28057651 57.7774529 -21.55493353 58.57171802 -23.82949829 59.36657715 C-27.20030342 60.54280783 -30.57789265 61.69891316 -33.95532227 62.85595703 C-36.58907094 63.7591116 -39.22128404 64.66665359 -41.85351562 65.57421875 C-43.52855341 66.14870704 -45.20368033 66.72293554 -46.87890625 67.296875 C-47.66527969 67.56868591 -48.45165314 67.84049683 -49.26185608 68.12054443 C-54.77147984 70 -54.77147984 70 -57 70 C-57.2401733 58.65848319 -57.01311828 47.34928018 -56.36322021 36.0244751 C-56.25108474 34.01939614 -56.1569473 32.0133371 -56.06298828 30.00732422 C-55.9854834 28.76740723 -55.90797852 27.52749023 -55.828125 26.25 C-55.7652832 25.14140625 -55.70244141 24.0328125 -55.63769531 22.890625 C-54.86532011 19.38950617 -53.79249479 18.19320939 -51 16 C-49.18261719 15.03027344 -49.18261719 15.03027344 -47.296875 14.359375 C-46.2143042 13.96613037 -46.2143042 13.96613037 -45.10986328 13.56494141 C-44.3311084 13.29601074 -43.55235352 13.02708008 -42.75 12.75 C-41.9338623 12.45915527 -41.11772461 12.16831055 -40.27685547 11.86865234 C-37.52345028 10.89562128 -34.76311224 9.94510472 -32 9 C-30.95811523 8.64260742 -29.91623047 8.28521484 -28.84277344 7.91699219 C-25.60617515 6.81159925 -22.36667031 5.71542487 -19.125 4.625 C-18.09729492 4.27920898 -17.06958984 3.93341797 -16.01074219 3.57714844 C-15.04040039 3.25520508 -14.07005859 2.93326172 -13.0703125 2.6015625 C-11.78278076 2.17351318 -11.78278076 2.17351318 -10.46923828 1.73681641 C-6.92071481 0.67794318 -3.70944553 0 0 0 Z " fill="#040404" transform="translate(450,220)"/>
<path d="M0 0 C0.47566406 0.55042969 0.95132813 1.10085938 1.44140625 1.66796875 C2.01503906 2.31378906 2.58867188 2.95960938 3.1796875 3.625 C3.78167969 4.36105469 4.38367188 5.09710938 5.00390625 5.85546875 C5.65746094 6.64308594 6.31101562 7.43070312 6.984375 8.2421875 C8.46236634 10.04323706 9.93056613 11.8523515 11.390625 13.66796875 C15.02838244 18.15228452 18.85398223 22.47728581 22.66259766 26.81640625 C23.19675293 27.42742187 23.7309082 28.0384375 24.28125 28.66796875 C24.75812256 29.21066406 25.23499512 29.75335938 25.72631836 30.3125 C27.93065852 32.97472623 29.00390625 34.33186586 29.00390625 37.85546875 C19.41211697 41.76505312 9.77317232 45.48626938 0.01220703 48.95288086 C-2.02565116 49.67849314 -4.05963726 50.41435341 -6.09375 51.15039062 C-7.41514203 51.62171816 -8.73674881 52.09244417 -10.05859375 52.5625 C-11.22519531 52.97991455 -12.39179687 53.3973291 -13.59375 53.82739258 C-17.11888436 54.89257203 -20.31592009 55.64259813 -23.99609375 55.85546875 C-26.51421277 53.54161204 -28.09744694 51.63871237 -29.99609375 48.85546875 C-30.61355469 47.9742334 -31.23101562 47.09299805 -31.8671875 46.18505859 C-33.94810728 43.16153894 -35.9768091 40.10795438 -37.99609375 37.04296875 C-38.681875 36.01365234 -39.36765625 34.98433594 -40.07421875 33.92382812 C-44.22233727 27.66602719 -48.19899401 21.33229253 -51.99609375 14.85546875 C-46.77009418 12.15362115 -41.59578153 9.81691683 -36.05859375 7.83984375 C-35.33422119 7.579151 -34.60984863 7.31845825 -33.86352539 7.04986572 C-32.34523229 6.50604654 -30.8259301 5.96503693 -29.30566406 5.42675781 C-26.99714984 4.6058443 -24.69601825 3.76616231 -22.39453125 2.92578125 C-20.90796709 2.39596953 -19.42100059 1.86728507 -17.93359375 1.33984375 C-17.25627197 1.08990662 -16.5789502 0.83996948 -15.88110352 0.5824585 C-10.89957607 -1.1484398 -4.84317287 -2.77700519 0 0 Z " fill="#030303" transform="translate(535.99609375,268.14453125)"/>
<path d="M0 0 C9.73654432 7.41911339 16.97240522 20.09790122 24 30 C24.64437012 30.89211182 24.64437012 30.89211182 25.30175781 31.80224609 C27.16852696 34.46144973 28 35.66674785 28 39 C23.66512988 41.19247652 19.32746193 43.37928764 14.98730469 45.5612793 C13.51650363 46.30165526 12.04642856 47.04347553 10.57714844 47.78686523 C-13.56911666 60 -13.56911666 60 -19 60 C-20.77810648 58.02059844 -22.35580107 56.06622307 -23.9375 53.9375 C-24.92094765 52.64772987 -25.90535609 51.35869189 -26.890625 50.0703125 C-27.40044922 49.3990332 -27.91027344 48.72775391 -28.43554688 48.03613281 C-30.96173442 44.74830445 -33.57935508 41.53537741 -36.1875 38.3125 C-40.99192808 32.34394885 -45.57633276 26.25818806 -50 20 C-47.29072881 16.64764767 -43.64350694 15.34983717 -39.76953125 13.75 C-39.06028 13.45061523 -38.35102875 13.15123047 -37.62028503 12.84277344 C-35.35384641 11.8882936 -33.08322555 10.94422872 -30.8125 10 C-29.30376776 9.3652216 -27.79530118 8.72981137 -26.28710938 8.09375 C-5.04986124 -0.8298227 -5.04986124 -0.8298227 0 0 Z " fill="#030303" transform="translate(517,499)"/>
<path d="M0 0 C5.17017497 0.93018779 7.17684886 2.43751825 11 6 C12.12178036 8.24356071 12.22202582 9.7329559 12.39453125 12.2265625 C15.09101409 47.32693314 29.5184999 76.4903286 56 100 C72.7340057 114.06428673 93.08929359 123.20810615 115.125 123.1875 C116.22751099 123.1884668 116.22751099 123.1884668 117.35229492 123.18945312 C123.23987263 123.1335081 128.89328109 122.38696367 134.70703125 121.45703125 C141.9999997 120.4448399 149.75131435 119.44014831 156 124 C156.33 124.99 156.66 125.98 157 127 C131.79290109 136.16292532 103.81997992 139.95673871 78.74291992 128.26391602 C66.75949612 122.352625 56.095834 114.72041841 46 106 C45.0203125 105.15566406 44.040625 104.31132812 43.03125 103.44140625 C26.44969518 88.85959658 14.03973529 71.56100369 6 51 C5.67386719 50.20464844 5.34773438 49.40929687 5.01171875 48.58984375 C-0.85229722 32.98253971 -0.38535371 16.39235389 0 0 Z " fill="#070707" transform="translate(256,402)"/>
<path d="M0 0 C4.35894957 2.50682673 8.2891843 6.8208258 11 11 C10 14 10 14 8.30444336 14.85620117 C7.57362549 15.08283447 6.84280762 15.30946777 6.08984375 15.54296875 C5.27273926 15.80762939 4.45563477 16.07229004 3.61376953 16.3449707 C2.73060059 16.62300537 1.84743164 16.90104004 0.9375 17.1875 C-35.46332676 29.34598617 -57.76438309 53.46803686 -75 87 C-76.32 87 -77.64 87 -79 87 C-80.95703125 85.0234375 -80.95703125 85.0234375 -82.8125 82.375 C-83.43769531 81.51648438 -84.06289062 80.65796875 -84.70703125 79.7734375 C-86.34724047 76.25516394 -85.91376035 74.73667334 -85 71 C-83.6171875 68.24267578 -83.6171875 68.24267578 -81.875 65.4453125 C-81.25109375 64.41792969 -80.6271875 63.39054687 -79.984375 62.33203125 C-78.66495224 60.19965707 -77.34205054 58.06943147 -76.015625 55.94140625 C-71.18823891 48.00838208 -71.18823891 48.00838208 -70 39 C-71.07695876 37.35611263 -71.07695876 37.35611263 -72.5 35.875 C-75 33 -75 33 -74.9921875 30.15625 C-73.75713853 26.2274328 -71.67296809 24.2147121 -68.625 21.625 C-68.09060303 21.15602295 -67.55620605 20.6870459 -67.00561523 20.20385742 C-53.29542145 8.34295498 -53.29542145 8.34295498 -48.359375 7.60546875 C-44.36426177 8.27352576 -43.31242385 10.82867586 -41 14 C-38.08996135 13.33329619 -35.39277808 12.43428744 -32.62109375 11.328125 C-31.78723145 10.99554688 -30.95336914 10.66296875 -30.09423828 10.3203125 C-29.21751465 9.96710938 -28.34079102 9.61390625 -27.4375 9.25 C-26.54015137 8.89164062 -25.64280273 8.53328125 -24.71826172 8.1640625 C-19.1347271 5.91731363 -13.65745522 3.54158259 -8.2890625 0.8125 C-5.3503403 -0.23059593 -3.0978045 -0.30895657 0 0 Z " fill="#040404" transform="translate(335,303)"/>
<path d="M0 0 C0.05013226 4.60406987 0.0860587 9.20797445 0.10986328 13.81225586 C0.11980628 15.37250543 0.13336547 16.93273696 0.15087891 18.49291992 C0.42844223 43.88996375 0.42844223 43.88996375 -3.6875 49.16113281 C-6.40711477 51.32373189 -9.06676042 52.64500309 -12.2421875 54.05859375 C-13.14942062 54.46513939 -13.14942062 54.46513939 -14.07498169 54.87989807 C-15.3556542 55.45142317 -16.63833118 56.01847523 -17.92285156 56.58129883 C-19.83897406 57.42169923 -21.74791385 58.27685569 -23.65625 59.13476562 C-45.78531634 69 -45.78531634 69 -51 69 C-51.10146695 52.63103914 -51.17796434 36.3369934 -50 20 C-20.38549686 6.00332721 -20.38549686 6.00332721 -9.8125 1.5625 C-8.81005249 1.13118774 -8.81005249 1.13118774 -7.78735352 0.69116211 C-3.3632532 -1.1210844 -3.3632532 -1.1210844 0 0 Z " fill="#040404" transform="translate(593,404)"/>
<path d="M0 0 C0.13559675 2.56428515 0.23433188 5.12135216 0.3125 7.6875 C0.35439453 8.40873047 0.39628906 9.12996094 0.43945312 9.87304688 C0.52865597 13.78013159 0.35882878 15.50853023 -2.0078125 18.75 C-5.56444954 21.42444248 -9.20009774 23.36549183 -13.1875 25.3125 C-22.29182292 29.94056325 -30.03602291 35.45569148 -37 43 C-37.43965088 43.46422363 -37.87930176 43.92844727 -38.33227539 44.40673828 C-42.72918712 49.25213353 -45.68035028 54.52951977 -48.6875 60.3125 C-49.62206106 62.10384828 -50.56318477 63.89179237 -51.51171875 65.67578125 C-51.91865967 66.45864502 -52.32560059 67.24150879 -52.74487305 68.0480957 C-54.6246575 70.97143293 -56.51944026 71.89379171 -59.86328125 72.6328125 C-68.34223245 73.84271947 -76.44329108 74.2340741 -85 74 C-84.68049225 55.14904261 -68.10722996 39.34680142 -55.359375 27.00390625 C-49.66188081 21.65403451 -43.56427799 17.21461152 -37 13 C-36.16597656 12.43152344 -35.33195312 11.86304688 -34.47265625 11.27734375 C-24.47657403 4.77406896 -11.95605746 -0.22992418 0 0 Z " fill="#040404" transform="translate(349,321)"/>
<path d="M0 0 C2.34683282 2.33058199 2.96668921 3.72829314 3.37231445 7.03686523 C3.3693335 8.19903564 3.36635254 9.36120605 3.36328125 10.55859375 C3.36263672 11.83154297 3.36199219 13.10449219 3.36132812 14.41601562 C3.35302979 15.07641846 3.34473145 15.73682129 3.33618164 16.41723633 C3.3126154 18.42765537 3.31562212 20.43674369 3.32226562 22.44726562 C3.25929207 33.76533016 3.25929207 33.76533016 1 38 C-4.39931915 42.89272913 -12.25461085 45.59808741 -18.8125 48.5625 C-20.33713867 49.26536133 -20.33713867 49.26536133 -21.89257812 49.98242188 C-40.54828226 58.48390591 -40.54828226 58.48390591 -45 57 C-45.09900816 51.11015713 -45.17153481 45.22080055 -45.21972656 39.33032227 C-45.23981991 37.32730672 -45.26709965 35.32434968 -45.30175781 33.3215332 C-45.35037611 30.43946892 -45.37299152 27.55818134 -45.390625 24.67578125 C-45.42159271 23.33644279 -45.42159271 23.33644279 -45.45318604 21.970047 C-45.45469096 17.78340778 -45.36567505 15.58798698 -43.1081543 11.95800781 C-40.86156881 9.87142813 -39.51476732 9.14942956 -36.5625 8.4375 C-35.24378906 8.09525391 -35.24378906 8.09525391 -33.8984375 7.74609375 C-32.46371094 7.37677734 -32.46371094 7.37677734 -31 7 C-28.89331699 6.34132822 -26.78923736 5.6742862 -24.6875 5 C-5.77456647 -0.81936416 -5.77456647 -0.81936416 0 0 Z " fill="#040404" transform="translate(429,556)"/>
<path d="M0 0 C9.20044458 3.17783078 15.8022839 10.44311718 20 19 C22.30755932 26.09303469 22.17894887 35.19689262 19.3125 42.0625 C16.43822678 47.51754672 12.48129688 51.21671064 7 54 C0.33097854 55.03901421 -6.17683259 55.14135138 -12 51.4375 C-19.65160453 45.36164334 -25.25306771 38.35939548 -26.41796875 28.44140625 C-26.77874076 18.75906547 -25.18837713 12.47254937 -19.34375 4.8359375 C-13.79567355 -1.06477092 -7.72852809 -1.33708277 0 0 Z " fill="#020202" transform="translate(421,469)"/>
<path d="M0 0 C1.03930664 0.39155273 1.03930664 0.39155273 2.09960938 0.79101562 C5.57928808 2.15262903 8.04658462 3.44690663 10.5625 6.1875 C3.24018937 13.10360946 -4.07546569 19.91587459 -11.9765625 26.171875 C-14.96794631 28.62196078 -17.70085959 31.29417848 -20.390625 34.0703125 C-23.59011163 35.81659719 -25.9315152 34.91675568 -29.4375 34.1875 C-32.73901367 32.65283203 -32.73901367 32.65283203 -36.10546875 30.6953125 C-36.70756668 30.34870575 -37.30966461 30.002099 -37.93000793 29.64498901 C-39.8346625 28.54466205 -41.72958174 27.42864514 -43.625 26.3125 C-44.90763425 25.57063018 -46.19083314 24.82973567 -47.47460938 24.08984375 C-58.5997847 17.64050606 -58.5997847 17.64050606 -61.4375 15.1875 C-61.4375 14.5275 -61.4375 13.8675 -61.4375 13.1875 C-55.45383999 10.81084832 -49.44994446 8.49026724 -43.4375 6.1875 C-42.39964355 5.78660156 -41.36178711 5.38570313 -40.29248047 4.97265625 C-37.01404639 3.71364343 -33.72709257 2.47952775 -30.4375 1.25 C-29.40052979 0.8485376 -28.36355957 0.4470752 -27.29516602 0.03344727 C-17.43995731 -3.60191033 -9.74318674 -3.98970764 0 0 Z " fill="#040404" transform="translate(461.4375,278.8125)"/>
<path d="M0 0 C2.47711515 1.46990187 4.32357235 2.56797051 6.07421875 4.82421875 C6.07421875 5.48421875 6.07421875 6.14421875 6.07421875 6.82421875 C4.75421875 6.82421875 3.43421875 6.82421875 2.07421875 6.82421875 C3.68690567 9.53646493 5.32323749 12.19774687 7.07421875 14.82421875 C7.07421875 15.81421875 7.07421875 16.80421875 7.07421875 17.82421875 C3.95085356 19.24450883 0.82522657 20.65975564 -2.30078125 22.07421875 C-3.17089844 22.46996094 -4.04101562 22.86570312 -4.9375 23.2734375 C-9.36219804 25.27274551 -13.80189933 27.23791973 -18.27734375 29.12109375 C-19.05158691 29.44948242 -19.82583008 29.77787109 -20.62353516 30.11621094 C-23.24259093 30.92164697 -25.20228629 31.14410174 -27.92578125 30.82421875 C-33.74785366 24.57614104 -36.76386866 15.83390905 -37.67578125 7.38671875 C-36.85792052 3.50188028 -36.65229741 3.15236014 -33.55078125 1.07421875 C-32.03046729 0.28182896 -30.4864453 -0.46615892 -28.92578125 -1.17578125 C-28.10851562 -1.56894531 -27.29125 -1.96210938 -26.44921875 -2.3671875 C-15.91673636 -7.04647921 -9.78941609 -5.1729707 0 0 Z " fill="#040404" transform="translate(321.92578125,281.17578125)"/>
<path d="M0 0 C0.89952393 0.15710449 1.79904785 0.31420898 2.72583008 0.47607422 C4.91796875 1.0703125 4.91796875 1.0703125 6.91796875 3.0703125 C0.28753241 6.50615969 -6.51242198 9.50401935 -13.3737793 12.4440918 C-15.27818444 13.26152674 -17.17913373 14.08666393 -19.08007812 14.91210938 C-20.29115234 15.43224609 -21.50222656 15.95238281 -22.75 16.48828125 C-23.84594482 16.96031982 -24.94188965 17.4323584 -26.07104492 17.91870117 C-40.85658642 23.57372422 -60.00943014 20.24608981 -75.08203125 17.0703125 C-75.74203125 16.7403125 -76.40203125 16.4103125 -77.08203125 16.0703125 C-77.08203125 15.4103125 -77.08203125 14.7503125 -77.08203125 14.0703125 C-73.21026044 12.44822881 -69.33647049 10.83108494 -65.4609375 9.21801758 C-64.1495336 8.67143951 -62.83863963 8.12363596 -61.52832031 7.57446289 C-39.49028199 -1.65883197 -23.80111964 -4.15992172 0 0 Z " fill="#070707" transform="translate(576.08203125,398.9296875)"/>
<path d="M0 0 C4.25428215 2.53125347 6.79636213 5.90153043 8.5625 10.5 C9.6806033 16.16967426 8.5803555 20.79209923 5.765625 25.77734375 C2.95866624 29.79639834 -0.74870441 32.24965451 -5.4375 33.5 C-12.30855687 34.27255495 -16.88915135 33.71674497 -22.4375 29.5 C-26.7194255 24.091252 -27.82192054 19.56746105 -27.7109375 12.80859375 C-27.09507191 7.60892852 -24.3128477 3.94513845 -20.4375 0.5625 C-14.47047196 -3.31286015 -6.36837903 -2.68967524 0 0 Z " fill="#050505" transform="translate(393.4375,400.5)"/>
<path d="M0 0 C12.31206124 -0.82232691 25.28618408 1.09539469 37 5 C35.47758948 11.08964209 32.46230982 16.81441154 27.03759766 20.23876953 C19.10475051 24.05446039 11.00467002 27.44318683 2.875 30.8125 C1.4269487 31.41569252 -0.02096899 32.0192059 -1.46875 32.62304688 C-4.97763955 34.08572941 -8.48830054 35.54407735 -12 37 C-13.38577199 32.62050537 -12.03981068 29.6708546 -10.375 25.5625 C-10.10010742 24.85963867 -9.82521484 24.15677734 -9.54199219 23.43261719 C-8.97656845 21.98808018 -8.40688755 20.54520244 -7.83300781 19.10400391 C-7.05616026 17.14184909 -6.30017826 15.17346597 -5.5546875 13.19921875 C-2.02250834 3.86115228 -2.02250834 3.86115228 0 0 Z " fill="#050505" transform="translate(486,474)"/>
<path d="M0 0 C29.31546304 -1.00446384 51.42430476 12.36309383 72.76953125 31.48046875 C87.7700257 45.68373412 97.03798683 64.0600582 102 84 C102.2990625 85.18078125 102.598125 86.3615625 102.90625 87.578125 C105.24966021 98.17091908 105.31881769 108.88886234 105.375 119.6875 C105.38678284 120.80103851 105.38678284 120.80103851 105.39880371 121.93707275 C105.51231295 135.74063374 103.87083269 148.67419779 98.5625 161.5625 C98.27568359 162.30306641 97.98886719 163.04363281 97.69335938 163.80664062 C95.91245695 168.26881261 93.93653166 172.18311183 91 176 C90.34 176 89.68 176 89 176 C89.62460998 168.23072855 92.78516683 161.41331424 95.67382812 154.24414062 C106.54507797 126.38323768 102.83089585 91.1174549 91 64 C79.69924389 39.82967693 61.4352204 22.13928543 36.4375 12.80419922 C30.60703306 10.88056559 24.59505183 9.52198708 18.60009766 8.21606445 C11.82446773 6.68977296 6.06566453 4.3849838 0 1 C0 0.67 0 0.34 0 0 Z " fill="#111111" transform="translate(356,317)"/>
<path d="M0 0 C-6.83390269 15.28370355 -27.94102294 26.11508457 -42.859375 31.9453125 C-47.54470519 33.71398611 -52.26020069 35.38370754 -57 37 C-57.81299561 37.28319092 -58.62599121 37.56638184 -59.46362305 37.8581543 C-60.2606665 38.13183838 -61.05770996 38.40552246 -61.87890625 38.6875 C-62.5963501 38.935 -63.31379395 39.1825 -64.05297852 39.4375 C-66.4220157 40.12192153 -68.54916978 40.23717712 -71 40 C-69.43983636 35.89380243 -66.4851112 33.53097633 -63.1875 30.8125 C-62.31798706 30.09066528 -62.31798706 30.09066528 -61.4309082 29.35424805 C-45.63894353 16.41879935 -21.22398113 0 0 0 Z " fill="#080808" transform="translate(556,314)"/>
<path d="M0 0 C5.20930233 14.1627907 5.20930233 14.1627907 4 19 C1.39912653 22.17264726 -1.75407411 24.51464318 -5 27 C-6.34033674 28.06969508 -7.68014375 29.14005411 -9.01953125 30.2109375 C-10.44864214 31.33052723 -11.87964108 32.44771105 -13.3125 33.5625 C-14.00601562 34.11188232 -14.69953125 34.66126465 -15.4140625 35.22729492 C-16.07792969 35.73107666 -16.74179687 36.2348584 -17.42578125 36.75390625 C-18.31390503 37.43948608 -18.31390503 37.43948608 -19.2199707 38.13891602 C-21 39 -21 39 -23.14526367 38.80444336 C-25 38 -25 38 -26.25 35.375 C-27.49688359 29.76402386 -27.84482492 25.85938038 -24.875 20.8125 C-20.47676911 14.67396192 -14.45523279 10.0244905 -8.62060547 5.31005859 C-7.13024377 4.10528594 -5.65978139 2.87600581 -4.19140625 1.64453125 C-2 0 -2 0 0 0 Z " fill="#060606" transform="translate(280,287)"/>
<path d="M0 0 C-4.40647544 5.50809431 -9.359633 10.19048621 -14.58984375 14.90625 C-17.63008112 17.64894734 -20.61205896 20.44926614 -23.58862305 23.26074219 C-28.8433189 28.21407664 -34.13606352 33.11869792 -39.625 37.8125 C-40.54539062 38.60269531 -41.46578125 39.39289063 -42.4140625 40.20703125 C-45.0533018 42.03695699 -46.83842237 42.65188405 -50 43 C-50 33.0339328 -41.87384819 25.57955995 -35.3125 18.8125 C-26.69584872 10.23972728 -12.61844322 -0.7210539 0 0 Z " fill="#080808" transform="translate(353,344)"/>
<path d="M0 0 C1.60294922 0.01353516 1.60294922 0.01353516 3.23828125 0.02734375 C4.04652344 0.03894531 4.85476562 0.05054688 5.6875 0.0625 C5.48046875 2.4296875 5.48046875 2.4296875 4.6875 5.0625 C2.61328125 6.3203125 2.61328125 6.3203125 0 7.1875 C-0.90492188 7.51234375 -1.80984375 7.8371875 -2.7421875 8.171875 C-4.01449219 8.61273438 -4.01449219 8.61273438 -5.3125 9.0625 C-9.30431187 10.71947851 -10.96859581 11.58337746 -13.51245117 15.12744141 C-15.71449906 17.82731124 -16.14989872 18.03090165 -19.81762695 18.74365234 C-21.13206787 18.71223145 -22.44650879 18.68081055 -23.80078125 18.6484375 C-24.50397995 18.63994781 -25.20717865 18.63145813 -25.9316864 18.62271118 C-28.16439045 18.58928324 -30.39339979 18.51404502 -32.625 18.4375 C-34.1438278 18.40738573 -35.66271259 18.38001245 -37.18164062 18.35546875 C-40.89311534 18.28953363 -44.60244673 18.1860945 -48.3125 18.0625 C-48.3125 17.4025 -48.3125 16.7425 -48.3125 16.0625 C-40.00517367 11.92506208 -31.49318638 8.51374483 -22.8125 5.25 C-21.76191406 4.85304932 -20.71132812 4.45609863 -19.62890625 4.04711914 C-18.62730469 3.67449951 -17.62570313 3.30187988 -16.59375 2.91796875 C-15.69720703 2.58434326 -14.80066406 2.25071777 -13.87695312 1.90698242 C-9.1683498 0.35642465 -4.9473683 -0.05436668 0 0 Z " fill="#070707" transform="translate(244.3125,361.9375)"/>
<path d="M0 0 C4.25428215 2.53125347 6.79636213 5.90153043 8.5625 10.5 C9.6806033 16.16967426 8.5803555 20.79209923 5.765625 25.77734375 C2.95866624 29.79639834 -0.74870441 32.24965451 -5.4375 33.5 C-12.30855687 34.27255495 -16.88915135 33.71674497 -22.4375 29.5 C-26.7194255 24.091252 -27.82192054 19.56746105 -27.7109375 12.80859375 C-27.09507191 7.60892852 -24.3128477 3.94513845 -20.4375 0.5625 C-14.47047196 -3.31286015 -6.36837903 -2.68967524 0 0 Z M-22.15234375 8.3671875 C-24.45651479 12.19113094 -24.05069731 16.18717893 -23.4375 20.5 C-21.27446971 24.90617281 -19.02635076 27.6644597 -14.4375 29.5 C-10.161063 30.0608442 -6.62126294 29.99981102 -2.625 28.3125 C1.94169669 24.5286656 4.31305318 21.14413631 4.875 15.1875 C4.49254251 10.67450164 3.56561944 8.87850937 0.5625 5.5 C-2.74645928 3.2686976 -6.04667708 1.81293516 -9.9375 0.9375 C-14.72145214 2.01388923 -18.85317427 4.77492552 -22.15234375 8.3671875 Z " fill="#EEEEEE" transform="translate(393.4375,400.5)"/>
<path d="M0 0 C-3.87970323 4.97086977 -8.12792934 9.00555823 -13 13 C-13.80695312 13.67933594 -14.61390625 14.35867188 -15.4453125 15.05859375 C-21.92265144 20.23492872 -28.75013227 24.24347113 -36.0625 28.125 C-36.99151123 28.62290039 -37.92052246 29.12080078 -38.87768555 29.63378906 C-39.75465088 30.0872168 -40.63161621 30.54064453 -41.53515625 31.0078125 C-42.322854 31.41660645 -43.11055176 31.82540039 -43.92211914 32.24658203 C-46 33 -46 33 -49 32 C-42.3637156 21.43393428 -14.04110762 -4.68036921 0 0 Z " fill="#0A0A0A" transform="translate(535,549)"/>
<path d="M0 0 C1.875 2.4375 1.875 2.4375 2 5.5625 C0.90616141 10.53350902 -1.70720322 15.00338561 -4.125 19.4375 C-8.38931676 18.00313891 -11.31515553 15.88129516 -14.75 13 C-15.69101562 12.21753906 -16.63203125 11.43507813 -17.6015625 10.62890625 C-19.52884688 8.95521192 -21.36099472 7.27845853 -23.125 5.4375 C-22.125 2.4375 -22.125 2.4375 -20.15625 1.26953125 C-13.1789961 -1.54075157 -7.01999062 -3.50999531 0 0 Z " fill="#050505" transform="translate(448.125,460.5625)"/>
<path d="M0 0 C2.38835191 0.85747221 3.57128614 1.86908088 5.328125 3.68359375 C5.84890625 4.20824219 6.3696875 4.73289062 6.90625 5.2734375 C8.078125 6.74609375 8.078125 6.74609375 8.078125 8.74609375 C3.98656633 10.4595811 -0.10687811 12.16845583 -4.20214844 13.87304688 C-5.59558261 14.45380685 -6.98848975 15.03583301 -8.38085938 15.61914062 C-10.38014332 16.45644758 -12.38126676 17.28921064 -14.3828125 18.12109375 C-16.18951416 18.87519531 -16.18951416 18.87519531 -18.03271484 19.64453125 C-20.921875 20.74609375 -20.921875 20.74609375 -22.921875 20.74609375 C-22.921875 20.08609375 -22.921875 19.42609375 -22.921875 18.74609375 C-22.261875 18.74609375 -21.601875 18.74609375 -20.921875 18.74609375 C-20.66212891 18.15658936 -20.40238281 17.56708496 -20.13476562 16.9597168 C-18.83800554 14.59302524 -17.49175576 13.15404668 -15.515625 11.328125 C-14.52369141 10.40676758 -14.52369141 10.40676758 -13.51171875 9.46679688 C-12.82207031 8.83708984 -12.13242187 8.20738281 -11.421875 7.55859375 C-10.73222656 6.91728516 -10.04257812 6.27597656 -9.33203125 5.61523438 C-2.84163003 -0.3754186 -2.84163003 -0.3754186 0 0 Z " fill="#0B0B0B" transform="translate(289.921875,533.25390625)"/>
<path d="M0 0 C0.33 0 0.66 0 1 0 C1.61961465 11.77267837 -1.24037937 22.67185916 -5.4375 33.5625 C-5.72568604 34.31200928 -6.01387207 35.06151855 -6.31079102 35.83374023 C-8.09989373 40.28222529 -10.0689391 44.19022269 -13 48 C-13.66 48 -14.32 48 -15 48 C-14.45743968 41.33960433 -12.08269918 35.67113585 -9.625 29.5 C-6.41264297 21.24575657 -3.85749587 13.38963933 -2.53515625 4.6328125 C-2 2 -2 2 0 0 Z " fill="#1A1A1A" transform="translate(460,445)"/>
<path d="M0 0 C0.33 0 0.66 0 1 0 C1 4.95 1 9.9 1 15 C3.31 15 5.62 15 8 15 C8 13.68 8 12.36 8 11 C11.96 11 15.92 11 20 11 C20 13.31 20 15.62 20 18 C16.52085059 18.02887814 13.04173169 18.04675687 9.5625 18.0625 C8.07266602 18.07506836 8.07266602 18.07506836 6.55273438 18.08789062 C5.60849609 18.09111328 4.66425781 18.09433594 3.69140625 18.09765625 C2.37958374 18.10551147 2.37958374 18.10551147 1.04125977 18.11352539 C-1 18 -1 18 -2 17 C-2.12602054 14.89868079 -2.1757922 12.79256212 -2.1875 10.6875 C-2.20167969 9.53636719 -2.21585937 8.38523437 -2.23046875 7.19921875 C-2.01267006 4.17587763 -1.5831811 2.53434129 0 0 Z " fill="none" transform="translate(276,114)"/>
<path d="M0 0 C3.3 0 6.6 0 10 0 C10 3.3 10 6.6 10 10 C3.84765625 10.09765625 3.84765625 10.09765625 2 10 C1 9 1 9 0.9375 5.9375 C0.958125 4.968125 0.97875 3.99875 1 3 C-1.31 3 -3.62 3 -6 3 C-6 5.64 -6 8.28 -6 11 C-6.33 11 -6.66 11 -7 11 C-7 8.03 -7 5.06 -7 2 C-3.535 1.505 -3.535 1.505 0 1 C0 0.67 0 0.34 0 0 Z " fill="none" transform="translate(243,122)"/>
<path d="M0 0 C0 3 0 3 -0.94677734 5.56298828 C-2.31889104 10.04064628 -2.56842698 14.33491503 -2.8515625 18.9921875 C-2.91532074 19.93812775 -2.97907898 20.88406799 -3.04476929 21.8586731 C-3.24560804 24.86367906 -3.43545765 27.86926249 -3.625 30.875 C-3.75969063 32.9193188 -3.89509944 34.96359041 -4.03125 37.0078125 C-4.36248593 42.00470022 -4.68387187 47.00213467 -5 52 C-6.875 51.6875 -6.875 51.6875 -9 51 C-9.66 50.01 -10.32 49.02 -11 48 C-10.01 48.33 -9.02 48.66 -8 49 C-6.45664836 38.67602641 -5.67712701 28.51214036 -5.51782227 18.07202148 C-5.33945084 11.48481614 -4.90865853 4.90865853 0 0 Z " fill="#CCCCCC" transform="translate(339,228)"/>
<path d="M0 0 C1.9375 0.25 1.9375 0.25 4 1 C6.35273568 4.52910353 6.40753493 5.84314368 6 10 C4.5 13.375 4.5 13.375 3 16 C1.68 16 0.36 16 -1 16 C-1.02685095 13.52076199 -1.04676547 11.0418116 -1.0625 8.5625 C-1.07506836 7.50192383 -1.07506836 7.50192383 -1.08789062 6.41992188 C-1.09653588 4.61306441 -1.05220011 2.80612397 -1 1 C-0.67 0.67 -0.34 0.34 0 0 Z " fill="#0B0B0B" transform="translate(354,322)"/>
<path d="M0 0 C-2.56268974 2.56268974 -4.79390177 3.05976424 -8.25 4.125 C-9.36890625 4.47820312 -10.4878125 4.83140625 -11.640625 5.1953125 C-15.95652199 6.22912038 -19.44292795 6.90146277 -23.375 4.625 C-23.91125 4.08875 -24.4475 3.5525 -25 3 C-25 2.34 -25 1.68 -25 1 C-16.65667456 -0.19190363 -8.40676978 -0.09283549 0 0 Z " fill="#0D0D0D" transform="translate(290,398)"/>
<path d="M0 0 C0.99 0 1.98 0 3 0 C2.51116874 4.23653759 0.00037395 7.1591396 -3 10 C-5.27500936 11.53551356 -7.54629603 12.74909209 -10 14 C-10.33 13.01 -10.66 12.02 -11 11 C-9.9275 10.484375 -8.855 9.96875 -7.75 9.4375 C-3.53003795 7.06644627 -2.06854018 4.30256358 0 0 Z " fill="#DBDBDB" transform="translate(439,511)"/>
<path d="M0 0 C1.98 0 3.96 0 6 0 C6 1.65 6 3.3 6 5 C3.69 5 1.38 5 -1 5 C-0.67 3.35 -0.34 1.7 0 0 Z " fill="none" transform="translate(285,114)"/>
<path d="M0 0 C-0.33 0.66 -0.66 1.32 -1 2 C-3.97 2 -6.94 2 -10 2 C-10 1.34 -10 0.68 -10 0 C-3.375 -1.125 -3.375 -1.125 0 0 Z " fill="#FBFBFB" transform="translate(394,522)"/>
<path d="M0 0 C0.33 0.66 0.66 1.32 1 2 C-0.98 2.33 -2.96 2.66 -5 3 C-5 2.34 -5 1.68 -5 1 C-5.66 0.67 -6.32 0.34 -7 0 C-3.98968256 -0.93423645 -3.13349732 -1.04449911 0 0 Z " fill="#C5C5C5" transform="translate(404,560)"/>
<path d="M0 0 C-1.25 1.5625 -1.25 1.5625 -3 3 C-5.1875 2.6875 -5.1875 2.6875 -7 2 C-5.26578631 -1.46842738 -3.40984787 -1.13661596 0 0 Z " fill="#E8E8E8" transform="translate(410,558)"/>
</svg>
